<svg width="1035" height="372" viewBox="0 0 1035 372" fill="none" xmlns="http://www.w3.org/2000/svg">
<path d="M822.251 204.392C829.822 198.244 837.723 192.456 844.913 185.891C900.545 135.084 939.999 73.4295 966.835 3.37616C967.075 2.75349 967.309 2.12546 967.587 1.52012C967.682 1.31212 967.906 1.1628 968.821 0.193463C968.042 7.3068 967.517 13.5695 966.65 19.7855C962.245 51.3561 955.29 82.3215 944.607 112.411C927.091 161.741 901.093 205.888 864.662 243.704C861.611 246.872 858.719 250.196 855.754 253.447C854.994 253.939 854.167 254.352 853.479 254.931C842.157 264.476 831.002 274.228 819.485 283.531C812.658 289.043 805.262 293.853 798.121 298.979C792.233 302.388 786.357 305.819 780.453 309.2C740.795 331.919 698.427 347.616 653.971 357.848C628.529 363.703 602.823 367.871 576.709 369.231C574.985 369.32 573.269 369.577 571.217 369.487C605.199 346.339 622.363 314.117 623.751 273.14C630.331 272.784 636.835 272.469 643.335 272.076C681.63 269.767 718.349 260.908 753.478 245.499C755.645 244.548 757.657 243.248 759.739 242.107C761.23 241.601 762.834 241.303 764.197 240.561C774.41 235.007 784.83 229.772 794.683 223.636C804.183 217.72 813.086 210.845 822.251 204.392Z" fill="#C8A364"/>
<path d="M822.25 204.392C813.085 210.845 804.182 217.72 794.682 223.636C784.829 229.772 774.409 235.006 764.196 240.561C762.833 241.302 761.229 241.601 759.738 242.106C743.553 218.049 727.385 193.977 711.174 169.934C688.164 135.804 665.12 101.694 642.093 67.5744C641.524 66.7318 640.981 65.8731 640.066 64.4718H644.172C670.556 64.4718 696.941 64.5104 723.324 64.4131C726.016 64.4038 727.565 65.2078 729.112 67.4864C760.094 113.165 791.182 158.772 822.25 204.392Z" fill="white"/>
<path d="M798.121 298.979C805.261 293.853 812.657 289.043 819.484 283.53C831.002 274.229 842.156 264.475 853.48 254.931C854.166 254.351 854.993 253.939 855.754 253.447C879.18 287.893 902.606 322.337 926.032 356.783C928.642 360.623 931.237 364.475 934.156 368.789C932.558 368.87 931.449 368.975 930.338 368.975C903.31 368.985 876.281 368.943 849.254 369.045C846.546 369.055 844.965 368.253 843.444 365.977C829.426 344.995 815.276 324.102 801.153 303.19C800.186 301.758 799.134 300.382 798.121 298.979Z" fill="white"/>
<path d="M521.836 314.874C518.464 315.617 514.947 316.029 511.495 316.037C463.14 316.155 414.784 316.177 366.429 316.221C365.775 316.222 365.119 316.221 364.108 316.221V230.358C365.084 230.281 366.095 230.129 367.107 230.129C415.599 230.118 464.089 230.074 512.583 230.138C535.92 230.169 553.405 246.385 555.913 270.081C558.037 290.151 542.816 310.251 521.836 314.874ZM364.205 119.377C372.88 119.377 381.529 119.342 390.179 119.387C397.667 119.426 405.153 119.623 412.641 119.63C441.148 119.661 469.655 119.615 498.161 119.655C510.397 119.674 520.396 126.493 524.635 137.523C528.728 148.177 525.732 160.459 517.143 168.315C511.373 173.593 504.348 175.325 496.804 175.331C453.04 175.367 409.276 175.347 365.512 175.338C365.137 175.338 364.763 175.206 364.205 175.102V119.377ZM581.544 204.711C577.072 200.018 571.916 195.975 566.993 191.559C577.271 174.729 581.176 156.402 578.757 136.719C573.653 95.19 539.133 64.6073 497.351 64.6073C484.625 64.6073 471.901 64.6193 459.176 64.6047C424.219 64.5673 389.261 64.5127 354.304 64.4753C339.851 64.4593 325.399 64.4727 310.748 64.4727V371.13H315.547C337.781 371.13 360.016 371.159 382.251 371.125C427.115 371.054 471.98 371.018 516.843 370.771C522.687 370.738 528.681 370.174 534.335 368.766C570.744 359.702 595.001 336.975 605.151 301.113C615.351 265.081 607.828 232.29 581.544 204.711" fill="white"/>
<path d="M209.687 315.274C205.991 315.79 202.227 316.048 198.494 316.054C151.892 316.15 105.29 316.178 58.6872 316.222C57.2325 316.224 55.7792 316.222 54.1072 316.222V230.12H57.1592C105.504 230.12 153.85 230.078 202.195 230.136C227.483 230.166 246.22 249.344 245.851 274.61C245.564 294.15 229.27 312.541 209.687 315.274ZM53.8978 119.376C55.3112 119.376 56.5792 119.374 57.8485 119.376C101.214 119.465 144.576 119.532 187.942 119.656C202.46 119.697 214.18 129.589 216.052 143.209C218.014 157.488 209.528 170.725 195.921 174.213C192.723 175.032 189.306 175.3 185.99 175.305C142.617 175.374 99.2432 175.352 55.8685 175.348C55.3472 175.348 54.8258 175.295 53.8978 175.246V119.376ZM271.499 204.753C267.017 200.057 261.852 196.01 256.998 191.658C268.687 167.804 271.075 155.886 268.403 134.734C263.459 95.5969 228.391 64.6635 188.884 64.6115C173.082 64.5902 157.279 64.6222 141.478 64.6049C109.073 64.5702 76.6658 64.5115 44.2605 64.4755C29.8272 64.4595 15.3952 64.4729 0.8125 64.4729V371.132H5.42183C26.7152 371.132 48.0085 371.158 69.3005 371.125C115.095 371.053 160.89 371.018 206.684 370.772C212.523 370.741 218.515 370.177 224.17 368.781C260.618 359.78 284.935 337.001 295.054 301.188C305.21 265.246 297.837 232.336 271.499 204.753" fill="white"/>
<path d="M1006.97 83.7284C994.165 83.6631 983.531 73.5844 983.606 61.5858C983.681 49.7191 994.738 39.6084 1007.37 39.8591C1020.35 40.1164 1030.59 50.0244 1030.45 62.1884C1030.31 74.0058 1019.64 83.7924 1006.97 83.7284ZM1007.19 35.7884C991.841 35.7338 979.61 47.4644 979.674 62.1818C979.735 76.2791 992.235 87.9244 1007.17 87.8018C1022.42 87.6764 1034.62 75.9911 1034.52 61.5951C1034.42 47.3778 1022.21 35.8404 1007.19 35.7884Z" fill="white"/>
<path d="M1010.56 58.9174C1007.5 59.5747 1004.2 59.1147 1000.63 59.1147V50.8934C1003.92 50.8934 1007.27 50.5041 1010.46 51.0681C1011.93 51.3281 1014.2 53.5654 1014.08 54.7081C1013.93 56.2761 1012.06 58.5961 1010.56 58.9174ZM1012.34 62.2987C1012.59 62.2014 1013.09 62.0294 1013.58 61.8054C1017.62 59.9201 1019.09 57.2174 1018.28 53.1987C1017.54 49.5387 1015.13 47.6894 1010.66 47.5987C1006.04 47.5054 1001.42 47.5787 996.742 47.5787V74.9321C998.044 74.8481 999.145 74.7761 1000.61 74.6814V63.2814C1006.33 61.6201 1009.66 64.1307 1012 68.6414C1012.55 69.7014 1013.42 70.6041 1013.91 71.6841C1015.19 74.5281 1017.19 75.7307 1020.78 74.5507C1017.98 70.4867 1015.22 66.4814 1012.34 62.2987" fill="white"/>
</svg>
