<svg version="1.0"
  xmlns="http://www.w3.org/2000/svg"
  width="100%"
  height="100%"
  viewBox="0 0 200.000000 200.000000"
  preserveAspectRatio="xMidYMid meet"
>
  <g
    transform="translate(0.000000,200.000000) scale(0.100000,-0.100000)"
    fill="#10766C"
    stroke="none"
  >
    <path
      d="M840 1936 c-320 -68 -574 -306 -662 -621 -21 -77 -22 -99 -26 -582
-2 -358 0 -514 8 -544 15 -55 72 -113 125 -128 24 -6 134 -11 272 -11 l233 0
2 263 3 262 111 3 110 3 119 -168 c66 -92 153 -212 194 -265 l74 -98 229 0
228 0 0 578 c0 613 -2 641 -50 771 -91 244 -313 447 -570 521 -96 28 -304 36
-400 16z m292 -197 c200 -40 376 -175 463 -354 63 -129 65 -149 65 -667 l0
-468 -69 0 -68 0 -98 138 c-55 75 -114 158 -132 184 l-34 47 57 27 c69 33 133
95 164 161 35 73 40 217 9 297 -27 74 -93 147 -163 181 -94 46 -178 57 -421
53 -206 -3 -222 -4 -255 -25 -19 -12 -44 -37 -55 -55 -19 -31 -20 -56 -25
-518 l-5 -485 -108 -3 -108 -3 3 483 4 483 27 82 c71 210 248 377 459 433 82
21 210 26 290 9z m62 -639 c65 -33 89 -75 84 -151 -5 -68 -32 -109 -91 -138
-39 -19 -61 -21 -220 -21 l-177 0 0 163 c0 90 3 167 7 171 5 4 84 6 178 4 158
-3 173 -5 219 -28z"
    />
  </g>
</svg>